<svg xmlns="http://www.w3.org/2000/svg" width="91" height="90" fill="none" viewBox="0 0 91 90"><path fill="#F8F8F8" fill-rule="evenodd" d="M70.7779 13.75H20.2223C19.5243 13.75 18.9584 14.3096 18.9584 15V75C18.9584 75.6904 19.5243 76.25 20.2223 76.25H70.7779C71.4759 76.25 72.0418 75.6904 72.0418 75V15C72.0418 14.3096 71.4759 13.75 70.7779 13.75ZM20.2223 11.25C18.1283 11.25 16.4307 12.9289 16.4307 15V75C16.4307 77.0711 18.1283 78.75 20.2223 78.75H70.7779C72.872 78.75 74.5695 77.0711 74.5695 75V15C74.5695 12.9289 72.872 11.25 70.7779 11.25H20.2223Z" clip-rule="evenodd"/><path fill="#F8F8F8" fill-rule="evenodd" d="M51.8899 46.2519C52.2931 46.2742 52.6612 46.4856 52.8806 46.8209L66.7834 68.0709C67.0349 68.4554 67.0538 68.9451 66.8325 69.3474C66.6112 69.7496 66.1853 70 65.7223 70H25.2778C24.792 70 24.3491 69.7246 24.1387 69.2915C23.9282 68.8584 23.9874 68.3443 24.2909 67.9691L34.402 55.4691C34.6266 55.1915 34.9601 55.0216 35.319 55.0019C35.678 54.9823 36.0284 55.1147 36.2826 55.3661L40.3507 59.3894L50.8413 46.7085C51.097 46.3994 51.4867 46.2297 51.8899 46.2519Z" clip-rule="evenodd"/></svg>